<svg version="1.1" viewBox="0 0 400 70" xmlns="http://www.w3.org/2000/svg">
  <path d="m.49 28.9c-.04-14.4 1.44-26.45 7.46-27.25 2.05-.28 10.85 3.18 16.45 3.4 4 .15 9-3.28 11.9-1.53 7 4.37 2.9 5.83 1.4 7.58-4.8 5.8 4.1 15.9 12.2 9.3 4.8-4 8.8 9.1 4.6 8.9-11.3-.6-11.8 8.6-5.1 9.7 6.6 1.2 5 5.4.1 8.7-5.8 2.6-8.3 8.1-1 11.4 7.8 3.1 3.6 11.3-9.7 9.5-4.4-.6-8.7-2.5-13.2-2.6-6.1-.2-15.2 4.9-18.18 2.5-9.21-7.2-6.26-17.6-6.93-39.6" fill="none"/>
  <path d="m.49 28.9c-.04-14.4 1.44-26.45 7.46-27.25 2.05-.28 10.65 5.58 16.45 5.4 5-.15 11-7.28 13.9-5.53 7 4.37 2.9 5.83 1.4 7.58-4.8 5.8 2 9.3 12.2 7.3 5.3-1.1 8.8 10 4.6 8.9-10.9-3-11.9 17.5-5.1 15.7 6.6-1.8 8.4 4.1 2.3 8.7-5.8 2.6-8.1 5-3.2 7.4 7.9 7.4 2.7 14.2-9.7 9.5-4.1-1.6-10.1 1.1-15.2 1.4-6.1.4-15.2 2.9-18.18.5-9.21-7.2-6.26-17.6-6.93-39.6" fill="none"/>
  <path d="m.49 28.9c-.04-14.4 1.44-26.45 7.46-27.25 2.05-.28 10.85 3.38 16.45 3.4 6.4.02 16.3-6.019 18.8-3.74 4.7 4.27 2.9 7.09-1.2 7.58-7.5.89 1.7 8.21 12.4 5.91 9.1-1.9 16.3 12.5 4.4 12-11.3-.6-13.4 13.4-1.8 11.6 6.6-1.8 14.3 9.1 3.6 10.9-5.8 2.6-12.3 8.2-7.1 9.1 11.2 3.3 8.7 15.4-8.2 9.5-4.1-1.5-13.1-2-19.7-1.9-6.1.1-15.2 4.9-18.18 2.5-9.21-7.2-6.26-17.6-6.93-39.6" fill="none"/>
  <path d="m.49 28.9c-.04-14.4 1.44-26.45 7.46-27.25 2.05-.28 10.85 6.59 16.45 5.4 8.8-1.87 22-6.649 26.1-5.1 5.9 2.25-3.9 6.55-4.5 8.95-1.2 4.8 1.6.2 12.4 1.9 12.9 2 16 20.1 5.7 12.4-9.1-6.7-14.7 17-3.1 15.2 6.6-6 14.7.9 3.6 10.9-2.3 1.9-10.4 5.1-5.2 6 16 6.6 2.9 17.8-8.2 9.5-3.3-2.4-17.7-.2-25.6 1.2-6 1.1-15.2 2.9-18.18.5-9.21-7.2-6.26-17.6-6.93-39.6" fill="#af9ed5" fill-opacity=".614"/>
  <path d="m.49 28.9c-.04-14.4 1.44-26.45 7.46-27.25 2.05-.28 10.95 1.78 16.45 3.4 8.6 2.54 15.8-6.13 21.9-3.62 3.6 1.48-2.5 8.33-.3 9.47 4.4 2.2 4.7 9.7 12.4 1.9 8.6-8.71 15.5 4.9 8.6 9.1-3.1 2-16.3 1.9-2.7 16 11.9 5.9 11 15.1.3 13.4-4.6-.9-17.8 5.9 3.2 6.6 11.7-5.8 12.1 13.8-8.3 9.5-15.5-3.2-24.5-.5-31.8-2.2-5.9-1.4-17.3 5.7-20.28 3.3-9.21-7.2-6.26-17.6-6.93-39.6" fill="none"/>
  <path d="m.49 28.9c-.04-14.4 1.44-26.45 7.46-27.25 2.05-.28 10.75 4.83 16.45 5.4 8.6.86 19.3-10.19 23.6-5.2 3.9 4.52-6.9 10.65-2.8 11.75 4.8 1.3.1 2.1 10.5-1.2 4.9-1.6 17.7 9.1 10.8 13.3-3.1 2-22.6.3-8.3 14 17.6-3.6 15.1 14.8 4.4 13.1-4.6-.9-11.4 1.6 1.6 6.7 9.9 3.7 6 12.7-10.6 9-15.4-3.4-18.6.4-25.9-1.3-5.9-1.4-17.3 3.7-20.28 1.3-9.21-7.2-6.26-17.6-6.93-39.6" fill="#a4d59e" fill-opacity=".614"/>
</svg>
